# xmcd CD database file
#
# Track frame offsets:
#	174
#	13641
#	28789
#	40816
#	55465
#	66513
#	88806
#	103002
#	113703
#	123590
#	133893
#	146624
#	160990
#	177196
#
# Disc length: 2536 seconds
#
# Revision: 0
# Processed by: cddbd v1.5.2PL0 Copyright (c) Steve Scherf et al.
# Submitted via: CDex 1.70beta2
#
DISCID=cd09e60e
DTITLE=Gunhild Carling and the Carling Big Band - Variete
DYEAR=1900
DGENRE=Jazz
TTITLE0=I Love You Forever
TTITLE1=Million Melodies - One Story
TTITLE2=B. Johnson Stomp
TTITLE3=Lonesome With a Sweet Melody
TTITLE4=Die Sternen
TTITLE5=Panama Rag
TTITLE6=Universe
TTITLE7=Looser's Weaper
TTITLE8=Flamingo
TTITLE9=Love Letter
TTITLE10=Haya Sue Blues
TTITLE11=Monday Through Sunday
TTITLE12=Sophisticated Lady
TTITLE13=Carolina
EXTD=
EXTT0=
EXTT1=
EXTT2=
EXTT3=
EXTT4=
EXTT5=
EXTT6=
EXTT7=
EXTT8=
EXTT9=
EXTT10=
EXTT11=
EXTT12=
EXTT13=
PLAYORDER=
